<svg width="512" height="512" viewBox="0 0 512 512" fill="none" xmlns="http://www.w3.org/2000/svg">
<rect width="512" height="512" rx="100" fill="black"/>
<path d="M256 120C181.442 120 121 180.442 121 255C121 329.558 181.442 390 256 390C330.558 390 391 329.558 391 255C391 180.442 330.558 120 256 120ZM256 345C206.294 345 166 304.706 166 255C166 205.294 206.294 165 256 165C305.706 165 346 205.294 346 255C346 304.706 305.706 345 256 345ZM286 210H226V232H286V210ZM286 247H226V269H286V247ZM286 284H226V306H286V284Z" fill="white"/>
</svg>
